<svg class="animated" id="freepik_stories-charts" xmlns="http://www.w3.org/2000/svg" viewBox="0 0 500 500" version="1.1" xmlns:xlink="http://www.w3.org/1999/xlink" xmlns:svgjs="http://svgjs.com/svgjs"><style>svg#freepik_stories-charts:not(.animated) .animable {opacity: 0;}svg#freepik_stories-charts.animated #freepik--background-complete--inject-228 {animation: 1.5s Infinite  linear wind;animation-delay: 0s;}svg#freepik_stories-charts.animated #freepik--Charts--inject-228 {animation: 1.5s Infinite  linear floating;animation-delay: 0s;}            @keyframes wind {                0% {                    transform: rotate( 0deg );                }                25% {                    transform: rotate( 1deg );                }                75% {                    transform: rotate( -1deg );                }            }                    @keyframes floating {                0% {                    opacity: 1;                    transform: translateY(0px);                }                50% {                    transform: translateY(-10px);                }                100% {                    opacity: 1;                    transform: translateY(0px);                }            }        </style><g id="freepik--background-complete--inject-228" class="animable" style="transform-origin: 250px 226.96px;"><rect y="382.4" width="500" height="0.25" style="fill: rgb(230, 230, 230); transform-origin: 250px 382.525px;" id="el700191ofc" class="animable"></rect><rect x="411.45" y="391.05" width="34.4" height="0.25" style="fill: rgb(230, 230, 230); transform-origin: 428.65px 391.175px;" id="elcj8aj45ji8l" class="animable"></rect><rect x="249.37" y="391.05" width="10.28" height="0.25" style="fill: rgb(230, 230, 230); transform-origin: 254.51px 391.175px;" id="elay4qcbhvukp" class="animable"></rect><rect x="381.64" y="395.97" width="19.36" height="0.25" style="fill: rgb(230, 230, 230); transform-origin: 391.32px 396.095px;" id="elfus6t3ao0b" class="animable"></rect><rect x="72.44" y="391.64" width="43.19" height="0.25" style="fill: rgb(230, 230, 230); transform-origin: 94.035px 391.765px;" id="elgn6upn7o2ch" class="animable"></rect><rect x="111.13" y="388.08" width="17.54" height="0.25" style="fill: rgb(230, 230, 230); transform-origin: 119.9px 388.205px;" id="elm9ldmqsqj5k" class="animable"></rect><rect x="225.66" y="398.67" width="93.68" height="0.25" style="fill: rgb(230, 230, 230); transform-origin: 272.5px 398.795px;" id="el08674lu3oshl" class="animable"></rect><path d="M237,337.8H43.91a5.71,5.71,0,0,1-5.7-5.71V60.66A5.71,5.71,0,0,1,43.91,55H237a5.71,5.71,0,0,1,5.71,5.71V332.09A5.71,5.71,0,0,1,237,337.8ZM43.91,55.2a5.46,5.46,0,0,0-5.45,5.46V332.09a5.46,5.46,0,0,0,5.45,5.46H237a5.47,5.47,0,0,0,5.46-5.46V60.66A5.47,5.47,0,0,0,237,55.2Z" style="fill: rgb(230, 230, 230); transform-origin: 140.46px 196.4px;" id="el7nqjzi1uxxn" class="animable"></path><path d="M453.31,337.8H260.21a5.72,5.72,0,0,1-5.71-5.71V60.66A5.72,5.72,0,0,1,260.21,55h193.1A5.71,5.71,0,0,1,459,60.66V332.09A5.71,5.71,0,0,1,453.31,337.8ZM260.21,55.2a5.47,5.47,0,0,0-5.46,5.46V332.09a5.47,5.47,0,0,0,5.46,5.46h193.1a5.47,5.47,0,0,0,5.46-5.46V60.66a5.47,5.47,0,0,0-5.46-5.46Z" style="fill: rgb(230, 230, 230); transform-origin: 356.75px 196.4px;" id="el0g3rs5i3dq7v" class="animable"></path><path d="M204.28,382.4H289.1c-8.31-31.34-3.33-65.09,14.92-96.43H219.2C200.94,317.31,196,351.06,204.28,382.4Z" style="fill: rgb(250, 250, 250); transform-origin: 252.207px 334.185px;" id="eloczku5q5ar" class="animable"></path><path d="M201.39,331h85.74A137.81,137.81,0,0,1,304,286H218.27A138,138,0,0,0,201.39,331Z" style="fill: rgb(230, 230, 230); transform-origin: 252.695px 308.5px;" id="el21l0onw3yb9" class="animable"></path><g id="elhekkg2az0o7"><rect x="64.7" y="87.61" width="363.24" height="231.54" rx="10.2" style="fill: rgb(230, 230, 230); transform-origin: 246.32px 203.38px; transform: rotate(180deg);" class="animable"></rect></g><g id="elpiroxvul4io"><rect x="69.52" y="87.61" width="363.24" height="231.54" rx="10.2" style="fill: rgb(245, 245, 245); transform-origin: 251.14px 203.38px; transform: rotate(180deg);" class="animable"></rect></g><g id="el0y7grb18eru"><rect x="69.52" y="99.32" width="363.24" height="186.65" style="fill: rgb(255, 255, 255); transform-origin: 251.14px 192.645px; transform: rotate(180deg);" class="animable"></rect></g><circle cx="251.14" cy="302.98" r="6.95" style="fill: rgb(230, 230, 230); transform-origin: 251.14px 302.98px;" id="elmfvbx68au1" class="animable"></circle><path d="M220,375.69h96.83a6.71,6.71,0,0,1,6.71,6.71H213.31A6.71,6.71,0,0,1,220,375.69Z" style="fill: rgb(245, 245, 245); transform-origin: 268.425px 379.045px;" id="elsc2bipnk9n" class="animable"></path><path d="M197,375.69h17.34a6.71,6.71,0,0,1,6.7,6.71H190.24A6.72,6.72,0,0,1,197,375.69Z" style="fill: rgb(230, 230, 230); transform-origin: 205.64px 379.045px;" id="el4ddwwwplbsf" class="animable"></path><path d="M284.5,72.65A5.66,5.66,0,0,0,278.85,67h-176a5.67,5.67,0,0,0-5.65,5.65V90.83H284.5Z" style="fill: rgb(230, 230, 230); transform-origin: 190.85px 78.915px;" id="elg6xi7rbvbi5" class="animable"></path><circle cx="238.83" cy="78.92" r="4.27" style="fill: rgb(255, 255, 255); transform-origin: 238.83px 78.92px;" id="elvqqvamtubk" class="animable"></circle><circle cx="253.96" cy="78.92" r="4.27" style="fill: rgb(255, 255, 255); transform-origin: 253.96px 78.92px;" id="el2qb47a61h4u" class="animable"></circle><circle cx="269.1" cy="78.92" r="4.27" style="fill: rgb(255, 255, 255); transform-origin: 269.1px 78.92px;" id="elz98zwl5yv9n" class="animable"></circle><path d="M102.9,213.28h176a5.66,5.66,0,0,0,5.65-5.64V90.83H97.25V207.64A5.67,5.67,0,0,0,102.9,213.28Z" style="fill: rgb(250, 250, 250); transform-origin: 190.9px 152.055px;" id="el8w5xd0naya8" class="animable"></path><path d="M297.1,91.55a5.66,5.66,0,0,0-5.64-5.64H115.51a5.66,5.66,0,0,0-5.65,5.64v18.19H297.1Z" style="fill: rgb(245, 245, 245); transform-origin: 203.48px 97.825px;" id="elx4qcopd2orr" class="animable"></path><circle cx="251.43" cy="97.82" r="4.27" style="fill: rgb(230, 230, 230); transform-origin: 251.43px 97.82px;" id="elwe86qwusxhb" class="animable"></circle><circle cx="266.57" cy="97.82" r="4.27" style="fill: rgb(230, 230, 230); transform-origin: 266.57px 97.82px;" id="ele6wusza75v9" class="animable"></circle><path d="M286,97.82a4.27,4.27,0,1,1-4.27-4.27A4.27,4.27,0,0,1,286,97.82Z" style="fill: rgb(230, 230, 230); transform-origin: 281.73px 97.82px;" id="elv0zyjoin1o" class="animable"></path><path d="M115.51,232.19h176a5.66,5.66,0,0,0,5.64-5.65V109.74H109.86v116.8A5.66,5.66,0,0,0,115.51,232.19Z" style="fill: rgb(255, 255, 255); transform-origin: 203.505px 170.965px;" id="elcbivwe95bsb" class="animable"></path><path d="M309.71,110.46a5.66,5.66,0,0,0-5.65-5.65H128.11a5.66,5.66,0,0,0-5.65,5.65v18.18H309.71Z" style="fill: rgb(250, 250, 250); transform-origin: 216.085px 116.725px;" id="el81e7r7jlb26" class="animable"></path><circle cx="264.04" cy="116.73" r="4.27" style="fill: rgb(240, 240, 240); transform-origin: 264.04px 116.73px;" id="elq0o0pz6o5dh" class="animable"></circle><circle cx="279.17" cy="116.73" r="4.27" style="fill: rgb(240, 240, 240); transform-origin: 279.17px 116.73px;" id="elc7qgjh6zckj" class="animable"></circle><path d="M298.58,116.73a4.28,4.28,0,1,1-4.28-4.27A4.28,4.28,0,0,1,298.58,116.73Z" style="fill: rgb(240, 240, 240); transform-origin: 294.3px 116.74px;" id="elggsltq0ihd7" class="animable"></path><path d="M128.11,251.1h176a5.67,5.67,0,0,0,5.65-5.65V128.64H122.46V245.45A5.67,5.67,0,0,0,128.11,251.1Z" style="fill: rgb(230, 230, 230); transform-origin: 216.11px 189.87px;" id="eloo8l9uirn5" class="animable"></path><g id="elwv4uv1p3afo"><path d="M357,178.4H292.51v96.3h96.31V178.4Zm-31.85.75h31.09v31.1H325.12Zm31.09,62.95H325.12V211h31.09Zm-62.94-62.95h31.09v31.1H293.27Zm0,31.85h31.09v31.1H293.27ZM324.36,274H293.27v-31.1h31.09Zm31.85,0H325.12v-31.1h31.09Zm31.85,0H357v-31.1h31.09Zm0-31.85H357V211h31.09ZM357,210.25v-31.1h31.09v31.1Z" style="fill: rgb(230, 230, 230); opacity: 0.5; transform-origin: 340.665px 226.55px;" class="animable"></path></g><g id="el8j5qh8yz3h9"><rect x="330.98" y="112.46" width="112.41" height="51.12" style="fill: rgb(245, 245, 245); transform-origin: 387.185px 138.02px; transform: rotate(180deg);" class="animable"></rect></g><path d="M443.39,132.38v31.2H331V124.83c18.65,0,28.6,17.1,51.67,17.1S412.69,132.38,443.39,132.38Z" style="fill: rgb(255, 255, 255); transform-origin: 387.195px 144.205px;" id="elgahw128h9vd" class="animable"></path><path d="M443.39,147.29c-25.26,0-33.6-11.17-47.79-11.17s-21.16,11.73-38.84,11.73c-18.42,0-25.78-9.22-25.78-9.22v25H443.39Z" style="fill: rgb(230, 230, 230); transform-origin: 387.185px 149.875px;" id="elv6w19vxvh7" class="animable"></path></g><g id="freepik--Shadow--inject-228" class="animable" style="transform-origin: 250px 416.24px;"><ellipse cx="250" cy="416.24" rx="193.89" ry="11.32" style="fill: rgb(245, 245, 245); transform-origin: 250px 416.24px;" id="elaqn6qu2yhz" class="animable"></ellipse></g><g id="freepik--Charts--inject-228" class="animable animator-active" style="transform-origin: 261.68px 272.079px;"><path d="M202,211.52a61.31,61.31,0,0,1,38.68-74.33l3.77,11.94A48.84,48.84,0,0,0,214,207.75Z" style="fill: rgb(58, 86, 231); transform-origin: 222.094px 174.355px;" id="eldqel2njeuuk" class="animable"></path><path d="M232.59,249.24a60.19,60.19,0,0,1-13-9.06,61.34,61.34,0,0,1-16.41-24.85l11.94-3.77a48.76,48.76,0,0,0,80.44,17.83l9.23,8.46A61.48,61.48,0,0,1,232.59,249.24Z" style="fill: rgb(58, 86, 231); transform-origin: 253.985px 233.875px;" id="eletfbdka4727" class="animable"></path><g id="el2t0lvoxkj9m"><path d="M232.59,249.24a60.19,60.19,0,0,1-13-9.06,61.34,61.34,0,0,1-16.41-24.85l11.94-3.77a48.76,48.76,0,0,0,80.44,17.83l9.23,8.46A61.48,61.48,0,0,1,232.59,249.24Z" style="fill: rgb(255, 255, 255); opacity: 0.7; transform-origin: 253.985px 233.875px;" class="animable"></path></g><path d="M298.31,226.44a48.76,48.76,0,0,0-50-78.51l-3.77-12a61.31,61.31,0,0,1,75,40.58,61.48,61.48,0,0,1-11.94,58.34Z" style="fill: rgb(58, 86, 231); transform-origin: 283.447px 184.254px;" id="eli0iykd5dd9" class="animable"></path><g id="ell34gu63d2e"><path d="M298.31,226.44a48.76,48.76,0,0,0-50-78.51l-3.77-12a61.31,61.31,0,0,1,75,40.58,61.48,61.48,0,0,1-11.94,58.34Z" style="opacity: 0.3; transform-origin: 283.447px 184.254px;" class="animable"></path></g><path d="M272.45,180.2a15.22,15.22,0,0,0-21.53,21.52l10.76,10.76,10.77-10.76A15.22,15.22,0,0,0,272.45,180.2Z" style="fill: rgb(58, 86, 231); transform-origin: 261.689px 194.113px;" id="ellx0oucafq9i" class="animable"></path><g id="elwne8w076pl"><path d="M272.45,180.2a15.22,15.22,0,0,0-21.53,21.52l10.76,10.76,10.77-10.76A15.22,15.22,0,0,0,272.45,180.2Z" style="opacity: 0.3; transform-origin: 261.689px 194.113px;" class="animable"></path></g><rect x="261.09" y="215.67" width="1.2" height="4.8" style="fill: rgb(58, 86, 231); transform-origin: 261.69px 218.07px;" id="eli7m8bo5ith" class="animable"></rect><g id="eldpjlfna7k0q"><rect x="261.09" y="215.67" width="1.2" height="4.8" style="opacity: 0.3; transform-origin: 261.69px 218.07px;" class="animable"></rect></g><rect x="261.09" y="224.18" width="1.2" height="4.8" style="fill: rgb(58, 86, 231); transform-origin: 261.69px 226.58px;" id="elcuwplctc5cv" class="animable"></rect><g id="eltr9gvlz7k1"><rect x="261.09" y="224.18" width="1.2" height="4.8" style="opacity: 0.3; transform-origin: 261.69px 226.58px;" class="animable"></rect></g><rect x="179.42" y="263.02" width="40.73" height="147.48" style="fill: rgb(58, 86, 231); transform-origin: 199.785px 336.76px;" id="eln6f7xmi5t6" class="animable"></rect><g id="el3ughh04325x"><rect x="179.42" y="263.02" width="40.73" height="147.48" style="fill: rgb(255, 255, 255); opacity: 0.7; transform-origin: 199.785px 336.76px;" class="animable"></rect></g><rect x="220.15" y="263.02" width="19.55" height="147.48" style="fill: rgb(58, 86, 231); transform-origin: 229.925px 336.76px;" id="el8wjgue42ngu" class="animable"></rect><g id="ely8p31ay6hbp"><rect x="220.15" y="263.02" width="19.55" height="147.48" style="fill: rgb(255, 255, 255); opacity: 0.5; transform-origin: 229.925px 336.76px;" class="animable"></rect></g><rect x="294.42" y="317.3" width="1.04" height="22.96" style="fill: rgb(38, 50, 56); transform-origin: 294.94px 328.78px;" id="el4tl7bqr2yo6" class="animable"></rect><rect x="294.42" y="303.8" width="1.04" height="9.23" style="fill: rgb(38, 50, 56); transform-origin: 294.94px 308.415px;" id="elbd9ljde7425" class="animable"></rect><rect x="283.66" y="354.5" width="40.73" height="56" style="fill: rgb(58, 86, 231); transform-origin: 304.025px 382.5px;" id="el9rfxyh8chhf" class="animable"></rect><g id="el262qqwaghrii"><rect x="283.66" y="354.5" width="40.73" height="56" style="opacity: 0.5; transform-origin: 304.025px 382.5px;" class="animable"></rect></g><rect x="324.39" y="354.5" width="19.55" height="56" style="fill: rgb(58, 86, 231); transform-origin: 334.165px 382.5px;" id="ely8a0lmujaxs" class="animable"></rect><g id="el4uegi22skvh"><rect x="324.39" y="354.5" width="19.55" height="56" style="opacity: 0.6; transform-origin: 334.165px 382.5px;" class="animable"></rect></g><rect x="231.54" y="231.84" width="40.73" height="178.66" style="fill: rgb(58, 86, 231); transform-origin: 251.905px 321.17px;" id="el04iuryejyft9" class="animable"></rect><g id="elm7db7lihs78"><rect x="231.54" y="231.84" width="40.73" height="178.66" style="opacity: 0.7; transform-origin: 251.905px 321.17px;" class="animable"></rect></g><rect x="272.27" y="231.84" width="19.55" height="178.66" style="fill: rgb(58, 86, 231); transform-origin: 282.045px 321.17px;" id="el30mt3kspi8o" class="animable"></rect><g id="elkwor1onzuc"><rect x="272.27" y="231.84" width="19.55" height="178.66" style="opacity: 0.8; transform-origin: 282.045px 321.17px;" class="animable"></rect></g></g><g id="freepik--character-2--inject-228" class="animable" style="transform-origin: 359.166px 273.414px;"><path d="M352.23,190.63c-1.4,11.06-3.16,22.15-4.73,33.12a40.51,40.51,0,0,1-.87,4.76,31.84,31.84,0,0,1-1.72,4.69,40,40,0,0,1-4.94,8,55.23,55.23,0,0,1-6.14,6.61c-1.08,1-2.23,2-3.39,2.87s-2.31,1.77-3.64,2.64l-3.55-4.43c.83-.92,1.77-2,2.62-3s1.69-2.08,2.51-3.14a60.38,60.38,0,0,0,4.39-6.51,35.83,35.83,0,0,0,3.13-6.71,21.32,21.32,0,0,0,.85-3.32,34.5,34.5,0,0,0,.34-3.57c.37-5.68.93-11.3,1.55-16.91S340,194.58,340.88,189Z" style="fill: rgb(229, 138, 123); transform-origin: 337.74px 221.16px;" id="eloyy2niq192m" class="animable"></path><path d="M354.72,186.83c2.55,6.77-10.36,26.7-10.36,26.7l-15.13-8.21A91.65,91.65,0,0,1,338,187.61C343.32,179.63,351.93,179.4,354.72,186.83Z" style="fill: rgb(58, 86, 231); transform-origin: 342.142px 197.483px;" id="elo6l32kjbftm" class="animable"></path><g id="elltynd4gysj"><path d="M354.72,186.83c2.55,6.77-10.36,26.7-10.36,26.7l-15.13-8.21A91.65,91.65,0,0,1,338,187.61C343.32,179.63,351.93,179.4,354.72,186.83Z" style="opacity: 0.2; transform-origin: 342.142px 197.483px;" class="animable"></path></g><path d="M345.74,181.65s-8.93,22.85-.45,65.39h40.47c.28-6.21-3.63-36.51,2.36-65.77a104.75,104.75,0,0,0-13.54-1.72,149.34,149.34,0,0,0-17.2,0A75.81,75.81,0,0,0,345.74,181.65Z" style="fill: rgb(58, 86, 231); transform-origin: 364.877px 213.171px;" id="eliqlo86bhjj" class="animable"></path><g id="eltfnkaeog61n"><path d="M345.74,181.65s-8.93,22.85-.45,65.39h40.47c.28-6.21-3.63-36.51,2.36-65.77a104.75,104.75,0,0,0-13.54-1.72,149.34,149.34,0,0,0-17.2,0A75.81,75.81,0,0,0,345.74,181.65Z" style="opacity: 0.2; transform-origin: 364.877px 213.171px;" class="animable"></path></g><polygon points="351.11 406.92 343.55 406.92 341.53 389.4 349.1 389.4 351.11 406.92" style="fill: rgb(229, 138, 123); transform-origin: 346.32px 398.16px;" id="elzhb50e8url" class="animable"></polygon><polygon points="404.35 406.92 396.79 406.92 390.89 389.4 398.46 389.4 404.35 406.92" style="fill: rgb(229, 138, 123); transform-origin: 397.62px 398.16px;" id="elrtomkl76pq" class="animable"></polygon><path d="M395.78,406H405a.65.65,0,0,1,.64.52l1.5,6.73a1.12,1.12,0,0,1-1.11,1.34c-3-.05-5.13-.22-8.87-.22-2.3,0-7,.24-10.21.24s-3.59-3.14-2.29-3.43c5.83-1.27,8-3,9.89-4.71A1.83,1.83,0,0,1,395.78,406Z" style="fill: rgb(38, 50, 56); transform-origin: 395.562px 410.305px;" id="elu50ddli9fra" class="animable"></path><path d="M343.6,406h8.26a.67.67,0,0,1,.65.52l1.49,6.73a1.1,1.1,0,0,1-1.09,1.34c-3-.05-7.29-.22-11-.22-4.38,0-8.16.24-13.3.24-3.11,0-4-3.14-2.67-3.43,5.92-1.29,10.75-1.43,15.87-4.59A3.51,3.51,0,0,1,343.6,406Z" style="fill: rgb(38, 50, 56); transform-origin: 339.684px 410.305px;" id="elhpnrrt604i" class="animable"></path><path d="M326,246l-6.34,5.3,8.33,4.89a7.27,7.27,0,0,0,2.37-8.29Z" style="fill: rgb(229, 138, 123); transform-origin: 325.238px 251.095px;" id="el8xnmoub98a" class="animable"></path><polygon points="341.54 389.41 342.57 398.44 350.14 398.44 349.1 389.41 341.54 389.41" style="fill: rgb(207, 111, 100); transform-origin: 345.84px 393.925px;" id="el8v52lfj8zck" class="animable"></polygon><polygon points="398.46 389.41 390.89 389.41 393.93 398.44 401.5 398.44 398.46 389.41" style="fill: rgb(207, 111, 100); transform-origin: 396.195px 393.925px;" id="el6t1kfb6jk2w" class="animable"></polygon><g id="el6kuj17r9y5i"><path d="M379.88,195.25c1.32-6.68,3.89-5.52,6.33-2.23a211.21,211.21,0,0,0-1.44,26.68C383.11,216.87,377.67,206.44,379.88,195.25Z" style="opacity: 0.2; transform-origin: 382.785px 205.043px;" class="animable"></path></g><path d="M372.87,160.19c-1.08,5.53-2.16,15.67,1.71,19.36,0,0-1.51,5.62-11.8,5.62-11.31,0-5.4-5.61-5.4-5.61,6.17-1.48,6-6.06,4.93-10.36Z" style="fill: rgb(229, 138, 123); transform-origin: 365.208px 172.68px;" id="elpriaap66chs" class="animable"></path><path d="M368.57,163.87l-6.25,5.33a17.41,17.41,0,0,1,.53,3.05c2.36-.34,5.6-2.93,5.85-5.4A8.36,8.36,0,0,0,368.57,163.87Z" style="fill: rgb(207, 111, 100); transform-origin: 365.548px 168.06px;" id="elkxffpv94dqc" class="animable"></path><path d="M355.28,143.16c-3.72,1.58-5.74,12-1,14.41S362.33,140.18,355.28,143.16Z" style="fill: rgb(38, 50, 56); transform-origin: 355.426px 150.314px;" id="elaexnc2on17e" class="animable"></path><path d="M373.53,151.86c-.46,7.49-.35,11.9-4.13,15.75-5.69,5.78-14.95,2.35-16.73-5.13-1.61-6.73-.59-17.86,6.75-20.84A10.24,10.24,0,0,1,373.53,151.86Z" style="fill: rgb(229, 138, 123); transform-origin: 362.785px 155.692px;" id="elx34y5t2tinp" class="animable"></path><path d="M350.42,138.46c4.53-6.87,5.24-3.56,5.17-.29,4-3.78,11.39-8.6,15-4.2a3.05,3.05,0,0,1,.51,3.45c4.65-1.24,9.34-1.59,8.49,3.43-.75,4.44-3.92,6.07-8.36,6.1C363.27,148.05,344,148.16,350.42,138.46Z" style="fill: rgb(38, 50, 56); transform-origin: 364.412px 139.835px;" id="elg01jdppyo2a" class="animable"></path><path d="M373,159.2c-4,1.63-12.05-13.06.06-14.79S379.41,156.57,373,159.2Z" style="fill: rgb(38, 50, 56); transform-origin: 373.396px 151.794px;" id="elevizdvnae6l" class="animable"></path><path d="M376.92,160.12a7.19,7.19,0,0,1-4.45,3.15c-2.44.54-3.53-1.68-2.73-3.92.72-2,2.85-4.71,5.25-4.25A3.21,3.21,0,0,1,376.92,160.12Z" style="fill: rgb(229, 138, 123); transform-origin: 373.505px 159.2px;" id="el8ho5mwsvmsv" class="animable"></path><path d="M380.87,146.68a5,5,0,0,0-4.49-1.6S380.29,142,380.87,146.68Z" style="fill: rgb(38, 50, 56); transform-origin: 378.625px 145.383px;" id="elnipnuqrqe9e" class="animable"></path><path d="M345.29,247S324,301.1,324.78,324.18c.85,24,15,72.51,15,72.51h12.82s-5.25-47.12-4.68-70.68c.62-25.7,24-79,24-79Z" style="fill: rgb(58, 86, 231); transform-origin: 348.34px 321.845px;" id="eline70r42j8" class="animable"></path><g id="elxsbxievugd"><path d="M362.29,264.91l1.23,2.79A367,367,0,0,0,351.84,303C351.49,289.36,354.31,274.32,362.29,264.91Z" style="opacity: 0.2; transform-origin: 357.666px 283.955px;" class="animable"></path></g><path d="M359.65,247s-4.31,55.32.4,77c5.16,23.72,30.32,72.67,30.32,72.67h13.86s-18.54-47-21.49-70.52c-3.19-25.49,3-79.13,3-79.13Z" style="fill: rgb(58, 86, 231); transform-origin: 381.039px 321.835px;" id="el64florys0so" class="animable"></path><path d="M362.17,154c0,.61-.33,1.11-.73,1.11s-.72-.5-.72-1.11.32-1.1.72-1.1S362.17,153.34,362.17,154Z" style="fill: rgb(38, 50, 56); transform-origin: 361.445px 154.005px;" id="ellh9ay2pnkze" class="animable"></path><path d="M355.27,154c0,.61-.33,1.11-.72,1.11s-.73-.5-.73-1.11.33-1.1.73-1.1S355.27,153.34,355.27,154Z" style="fill: rgb(38, 50, 56); transform-origin: 354.545px 154.005px;" id="elmccps55yaj" class="animable"></path><path d="M357.46,154.26a21.88,21.88,0,0,1-2.91,5.21,3.5,3.5,0,0,0,2.91.55Z" style="fill: rgb(223, 87, 83); transform-origin: 356.005px 157.194px;" id="elb3154gv16np" class="animable"></path><path d="M359.24,161.71a.18.18,0,0,1,0-.36,4.83,4.83,0,0,0,3.94-1.89.18.18,0,0,1,.25-.05.18.18,0,0,1,.05.24A5.08,5.08,0,0,1,359.24,161.71Z" style="fill: rgb(38, 50, 56); transform-origin: 361.283px 160.546px;" id="eleh1eafx9xm" class="animable"></path><path d="M364.24,151.73a.37.37,0,0,1-.28-.14,2.85,2.85,0,0,0-2.3-1.2.35.35,0,0,1-.38-.34.36.36,0,0,1,.33-.38,3.58,3.58,0,0,1,2.92,1.48.37.37,0,0,1-.07.51A.44.44,0,0,1,364.24,151.73Z" style="fill: rgb(38, 50, 56); transform-origin: 362.941px 150.7px;" id="elt73cskpod1" class="animable"></path><path d="M352.25,151.58a.45.45,0,0,1-.16,0,.35.35,0,0,1-.16-.48,3.53,3.53,0,0,1,2.57-2,.36.36,0,0,1,.09.71h0a2.86,2.86,0,0,0-2,1.62A.35.35,0,0,1,352.25,151.58Z" style="fill: rgb(38, 50, 56); transform-origin: 353.378px 150.344px;" id="elup8ng8n69ql" class="animable"></path><path d="M391,187.15c.65,1.4,1.2,2.65,1.72,4s1,2.63,1.53,4c1,2.66,1.83,5.36,2.59,8.11s1.39,5.56,1.91,8.42l.36,2.15.26,2.2c.1.73.14,1.48.2,2.23l.07,1.12,0,.28,0,.47c0,.35,0,.67,0,1a15.64,15.64,0,0,1-1.68,5.64,35.12,35.12,0,0,1-2.41,4.08,65.26,65.26,0,0,1-5.43,6.8,107.13,107.13,0,0,1-12.23,11.51l-4-4c3.27-4.18,6.53-8.5,9.5-12.79a72.57,72.57,0,0,0,4-6.48,23.7,23.7,0,0,0,1.45-3.11,6.12,6.12,0,0,0,.5-2.16s0,0,0,0,0,.06,0,0l0-.23-.14-.9c-.09-.61-.17-1.21-.31-1.82l-.36-1.83-.43-1.84c-.61-2.46-1.3-4.93-2.1-7.39s-1.65-4.91-2.56-7.36-1.91-4.92-2.84-7.18Z" style="fill: rgb(229, 138, 123); transform-origin: 386.765px 218.155px;" id="el484b60bg5r7" class="animable"></path><path d="M393.27,407.37a2.26,2.26,0,0,1-1.45-.39,1.08,1.08,0,0,1-.37-1,.56.56,0,0,1,.3-.5c.85-.43,3.28,1.07,3.56,1.24a.18.18,0,0,1,.08.18.19.19,0,0,1-.14.15A9.29,9.29,0,0,1,393.27,407.37Zm-1.12-1.57a.41.41,0,0,0-.23.05c-.05,0-.11.07-.12.21a.77.77,0,0,0,.25.65,3.67,3.67,0,0,0,2.68.13A7.26,7.26,0,0,0,392.15,405.8Z" style="fill: rgb(58, 86, 231); transform-origin: 393.414px 406.39px;" id="elr4s3laloz4j" class="animable"></path><path d="M395.21,407.1l-.08,0c-.79-.43-2.3-2.08-2.14-2.93a.59.59,0,0,1,.57-.47,1,1,0,0,1,.76.23c.88.72,1.06,2.9,1.07,3a.19.19,0,0,1-.08.16A.17.17,0,0,1,395.21,407.1ZM393.69,404h-.09c-.23,0-.25.13-.26.18-.09.5.87,1.75,1.65,2.34a4.34,4.34,0,0,0-.89-2.37A.63.63,0,0,0,393.69,404Z" style="fill: rgb(58, 86, 231); transform-origin: 394.184px 405.398px;" id="el1zefj5bu1o9" class="animable"></path><path d="M340.45,407.37a2.83,2.83,0,0,1-1.83-.47,1,1,0,0,1-.34-.87.6.6,0,0,1,.29-.48c.93-.51,4,1,4.31,1.21a.18.18,0,0,1-.05.34A13.47,13.47,0,0,1,340.45,407.37Zm-1.37-1.57a.62.62,0,0,0-.33.07.19.19,0,0,0-.11.19.64.64,0,0,0,.21.57c.47.42,1.72.49,3.38.21A9.76,9.76,0,0,0,339.08,405.8Z" style="fill: rgb(58, 86, 231); transform-origin: 340.628px 406.413px;" id="el444i30tua9j" class="animable"></path><path d="M342.8,407.1a.12.12,0,0,1-.08,0c-.91-.41-2.72-2-2.58-2.9,0-.2.17-.45.67-.5a1.34,1.34,0,0,1,1,.31c1,.79,1.17,2.83,1.17,2.91a.18.18,0,0,1-.07.17A.19.19,0,0,1,342.8,407.1ZM341,404h-.11c-.32,0-.34.16-.35.2-.08.51,1.15,1.8,2.08,2.36a4.19,4.19,0,0,0-1-2.33A.93.93,0,0,0,341,404Z" style="fill: rgb(58, 86, 231); transform-origin: 341.557px 405.4px;" id="elb18tc4lxdl" class="animable"></path><path d="M375.64,244.05l-7.42,2,6.15,7.46s5.95-3.09,4.67-6.42Z" style="fill: rgb(229, 138, 123); transform-origin: 373.72px 248.78px;" id="elswlsemhs7m" class="animable"></path><polygon points="364.38 251.04 369.75 256.96 374.37 253.48 368.22 246.02 364.38 251.04" style="fill: rgb(229, 138, 123); transform-origin: 369.375px 251.49px;" id="ela7z018i3c95" class="animable"></polygon><polygon points="387.92 396.99 406.04 396.99 406.04 392.11 385.79 391.8 387.92 396.99" style="fill: rgb(58, 86, 231); transform-origin: 395.915px 394.395px;" id="elw0xzdcxuxx" class="animable"></polygon><g id="el9jjljtftlbt"><polygon points="387.92 396.99 406.04 396.99 406.04 392.11 385.79 391.8 387.92 396.99" style="opacity: 0.4; transform-origin: 395.915px 394.395px;" class="animable"></polygon></g><polygon points="336.87 396.99 354.99 396.99 354.99 392.06 334.74 391.8 336.87 396.99" style="fill: rgb(58, 86, 231); transform-origin: 344.865px 394.395px;" id="elcn1wcwjvf6h" class="animable"></polygon><g id="elvzzlhmt67mk"><polygon points="336.87 396.99 354.99 396.99 354.99 392.06 334.74 391.8 336.87 396.99" style="opacity: 0.4; transform-origin: 344.865px 394.395px;" class="animable"></polygon></g><path d="M389.7,181.76c6.75,2.6,13.5,26.54,13.5,26.54l-18,7.08S379.83,203,378,193.8C376.12,184.15,382.05,178.82,389.7,181.76Z" style="fill: rgb(58, 86, 231); transform-origin: 390.425px 198.166px;" id="elpn58zxfle1" class="animable"></path><g id="elgnua8dq8uks"><path d="M389.7,181.76c6.75,2.6,13.5,26.54,13.5,26.54l-18,7.08S379.83,203,378,193.8C376.12,184.15,382.05,178.82,389.7,181.76Z" style="opacity: 0.2; transform-origin: 390.425px 198.166px;" class="animable"></path></g><path d="M316.73,219.75a33.79,33.79,0,0,0,.55,20.37,33.65,33.65,0,0,0,10.94,15.52,33.92,33.92,0,0,0,45.51-50.1h0a33.53,33.53,0,0,0-14.92-9,34.06,34.06,0,0,0-30.8,6.17,27.3,27.3,0,0,0-2.22,2A33.81,33.81,0,0,0,316.73,219.75Z" style="fill: rgb(58, 86, 231); transform-origin: 349.308px 229.082px;" id="elpa5dhc6xnx" class="animable"></path><g id="elnvpi57ttsfc"><path d="M316.73,219.75a33.79,33.79,0,0,0,.55,20.37,33.65,33.65,0,0,0,10.94,15.52,33.92,33.92,0,0,0,45.51-50.1h0a33.53,33.53,0,0,0-14.92-9,34.06,34.06,0,0,0-30.8,6.17,27.3,27.3,0,0,0-2.22,2A33.81,33.81,0,0,0,316.73,219.75Z" style="opacity: 0.6; transform-origin: 349.308px 229.082px;" class="animable"></path></g><path d="M369.47,204.21l-24.4,23.55-9.35,32.6a33.91,33.91,0,0,0,33.75-56.15Z" style="fill: rgb(58, 86, 231); transform-origin: 357.354px 232.943px;" id="eltwcchd7rx2" class="animable"></path><g id="el5ufzofencuk"><path d="M369.47,204.21l-24.4,23.55-9.35,32.6a33.91,33.91,0,0,0,33.75-56.15Z" style="fill: rgb(255, 255, 255); opacity: 0.9; transform-origin: 357.354px 232.943px;" class="animable"></path></g><g id="elc825dr51fv"><g style="opacity: 0.7; transform-origin: 340.97px 210.8px;" class="animable"><path d="M345.07,227.76l24.4-23.56a33.91,33.91,0,0,0-57,14.22Z" style="fill: rgb(58, 86, 231); transform-origin: 340.97px 210.8px;" id="elef3hzz99uvc" class="animable"></path><g id="elpbuiz6y0hk"><path d="M345.07,227.76l24.4-23.56a33.91,33.91,0,0,0-57,14.22Z" style="fill: rgb(255, 255, 255); opacity: 0.44; transform-origin: 340.97px 210.8px;" class="animable"></path></g></g></g><polygon points="319.14 255.8 326.49 258.12 327.96 256.22 319.63 251.33 319.14 255.8" style="fill: rgb(229, 138, 123); transform-origin: 323.55px 254.725px;" id="eli2v9nnno40l" class="animable"></polygon><path d="M345.07,227.76l-32.59-9.34a33.92,33.92,0,0,0,23.25,41.94Z" style="fill: rgb(58, 86, 231); transform-origin: 328.12px 239.39px;" id="el1tyi23eilnd" class="animable"></path><g id="elssup8xql3p"><path d="M345.07,227.76l-32.59-9.34a33.92,33.92,0,0,0,23.25,41.94Z" style="opacity: 0.6; transform-origin: 328.12px 239.39px;" class="animable"></path></g></g><g id="freepik--character-1--inject-228" class="animable" style="transform-origin: 175.611px 266.82px;"><path d="M158.24,181.86c-1.75,1.79-3.63,3.77-5.36,5.75s-3.47,4-5.1,6.07-3.17,4.2-4.65,6.35l-1.08,1.63-1,1.65c-.34.55-.66,1.11-1,1.67l-.83,1.53a8.59,8.59,0,0,0-.57,2.73,27.31,27.31,0,0,0,0,3.62,68.78,68.78,0,0,0,1,7.73c.45,2.62,1,5.25,1.65,7.86s1.29,5.27,2,7.85l-3.85,1.44A112.57,112.57,0,0,1,133.62,222a64.23,64.23,0,0,1-1.83-8.43,33.86,33.86,0,0,1-.32-4.59,14.79,14.79,0,0,1,.9-5.31c.24-.58.37-.82.53-1.16l.47-1c.31-.66.64-1.31,1-1.94l1-1.91,1.1-1.86a80.72,80.72,0,0,1,4.79-7.09c1.7-2.27,3.46-4.49,5.32-6.62s3.75-4.17,5.9-6.22Z" style="fill: rgb(229, 138, 123); transform-origin: 144.854px 206.805px;" id="el47503gh4g7" class="animable"></path><path d="M142.24,234.67l6.84,2-4.55,4.62s-4.93-1.52-5.62-4.88Z" style="fill: rgb(229, 138, 123); transform-origin: 143.995px 237.98px;" id="el2j2egrb5tpo" class="animable"></path><polygon points="153.23 241.97 152.07 246.38 144.53 241.32 149.08 236.71 153.23 241.97" style="fill: rgb(229, 138, 123); transform-origin: 148.88px 241.545px;" id="eluqlapchotz" class="animable"></polygon><polygon points="92 365.95 97.6 371.96 112.8 361.08 107.19 355.07 92 365.95" style="fill: rgb(229, 138, 123); transform-origin: 102.4px 363.515px;" id="el18hbz0k2tb3" class="animable"></polygon><polygon points="166.31 387.97 164.97 398.31 156.96 396.97 158.2 387.37 166.31 387.97" style="fill: rgb(207, 111, 100); transform-origin: 161.635px 392.84px;" id="el6dndvueqi1" class="animable"></polygon><polygon points="107.19 355.07 112.79 361.09 106.5 365.59 100.7 359.71 107.19 355.07" style="fill: rgb(207, 111, 100); transform-origin: 106.745px 360.33px;" id="elc3u7623l8up" class="animable"></polygon><path d="M180.34,223.37S164.5,276.42,156.76,307c-8.16,32.23-47.13,58.51-47.13,58.51l-8.32-8.27s26.05-22,34-52.07c16.06-61.07,8.34-74,21.14-86.42Z" style="fill: rgb(58, 86, 231); transform-origin: 140.825px 292.13px;" id="el3g6qt0rfo15" class="animable"></path><g id="elg0tbsnghdfd"><path d="M180.34,223.37S164.5,276.42,156.76,307c-8.16,32.23-47.13,58.51-47.13,58.51l-8.32-8.27s26.05-22,34-52.07c16.06-61.07,8.34-74,21.14-86.42Z" style="opacity: 0.6; transform-origin: 140.825px 292.13px;" class="animable"></path></g><path d="M100.05,371l-4.67-8a.65.65,0,0,0-.81-.29l-6.66,2.68a1.31,1.31,0,0,0-.56,1.86c1.68,2.75,2.62,4,4.68,7.51,1.27,2.16,2.9,5.44,4.64,8.42s4.71,1.46,4.24.07c-2.1-6.25-1-8.06-.59-10.84A2.15,2.15,0,0,0,100.05,371Z" style="fill: rgb(38, 50, 56); transform-origin: 94.0608px 373.78px;" id="elw1fjpnb653k" class="animable"></path><polygon points="110.34 366.69 99.96 356.36 102.78 353.23 115.42 363.99 110.34 366.69" style="fill: rgb(245, 245, 245); transform-origin: 107.69px 359.96px;" id="elnws49shxqdt" class="animable"></polygon><g id="elnf87yh96kb"><path d="M172.9,234.67c-10.39,8-11.09,38.56-10.85,52.36,5.29-19.29,11.54-40.76,15.19-53.17C176.24,233,174.81,233.19,172.9,234.67Z" style="opacity: 0.3; transform-origin: 169.627px 260.189px;" class="animable"></path></g><path d="M101.73,375.36a1,1,0,0,1-.29-.05c-1-.3-1.69-2.11-2-3.16a.2.2,0,0,1,.06-.21.18.18,0,0,1,.21,0c.3.15,2.93,1.52,3,2.56a.66.66,0,0,1-.26.59A1.17,1.17,0,0,1,101.73,375.36Zm-1.79-2.87c.49,1.39,1.08,2.29,1.61,2.46a.71.71,0,0,0,.67-.18.25.25,0,0,0,.12-.25C102.28,374,101,373.07,99.94,372.49Z" style="fill: rgb(58, 86, 231); transform-origin: 101.072px 373.633px;" id="elrtxahz3d7p" class="animable"></path><path d="M102,372.83a5.84,5.84,0,0,1-2.5-.57.21.21,0,0,1,0-.34c.09,0,2.06-1.19,3.18-.82a1,1,0,0,1,.65.58.68.68,0,0,1-.13.84A1.87,1.87,0,0,1,102,372.83Zm-2-.75c.92.37,2.51.52,2.93.15.07-.06.13-.16,0-.39a.66.66,0,0,0-.42-.38A4.39,4.39,0,0,0,100,372.08Z" style="fill: rgb(58, 86, 231); transform-origin: 101.417px 371.933px;" id="el479dlmgogdf" class="animable"></path><polygon points="155.8 405.98 163.91 406.58 166.31 387.96 158.21 387.36 155.8 405.98" style="fill: rgb(229, 138, 123); transform-origin: 161.055px 396.97px;" id="elm7t6ylgayy" class="animable"></polygon><path d="M188.44,225s2,64.19-2.51,88.37c-4.72,25.15-19.09,82.35-19.09,82.35l-11.69-1.51s7.4-57.79,10.53-82.77c3.43-27.24-1.06-91.05-1.06-91.05Z" style="fill: rgb(58, 86, 231); transform-origin: 172.016px 308.055px;" id="el3hr7qnm9tq" class="animable"></path><g id="el2vp9hwkgd9j"><path d="M188.44,225s2,64.19-2.51,88.37c-4.72,25.15-19.09,82.35-19.09,82.35l-11.69-1.51s7.4-57.79,10.53-82.77c3.43-27.24-1.06-91.05-1.06-91.05Z" style="opacity: 0.6; transform-origin: 172.016px 308.055px;" class="animable"></path></g><path d="M197.44,148.64c-.11.65.15,1.23.57,1.32s.85-.38,1-1-.15-1.23-.57-1.31S197.55,148,197.44,148.64Z" style="fill: rgb(38, 50, 56); transform-origin: 198.232px 148.806px;" id="el59xj9dk6dmg" class="animable"></path><path d="M198.2,147.63l1.63-.15S198.83,148.54,198.2,147.63Z" style="fill: rgb(38, 50, 56); transform-origin: 199.015px 147.739px;" id="el6ser28eu1ew" class="animable"></path><path d="M197.88,149.37a17.9,17.9,0,0,0,1.63,4.55,2.86,2.86,0,0,1-2.38,0Z" style="fill: rgb(223, 87, 83); transform-origin: 198.32px 151.775px;" id="elpgpdarf5vdq" class="animable"></path><path d="M199,146a.38.38,0,0,1-.35-.23,3.22,3.22,0,0,0-2.13-1.87.38.38,0,0,1-.31-.44.39.39,0,0,1,.45-.31,3.93,3.93,0,0,1,2.69,2.31.39.39,0,0,1-.19.51Z" style="fill: rgb(38, 50, 56); transform-origin: 197.794px 144.572px;" id="elovpjxcon88f" class="animable"></path><path d="M176.92,154c.15,4.9-.35,13.74-4.19,16.25,0,0,.5,5,9.33,6.75,9.71,1.88,5.44-3.89,5.44-3.89-5.1-2.29-4.31-6.17-2.78-9.66Z" style="fill: rgb(229, 138, 123); transform-origin: 180.583px 165.688px;" id="elgenbusskzuf" class="animable"></path><path d="M201.92,180.22c2,1.52,4.2,3.13,6.37,4.6s4.39,3,6.65,4.33,4.55,2.64,6.85,3.87a72.58,72.58,0,0,0,7.05,3.18c.21.08.14,0,.19.07l.13,0a1.37,1.37,0,0,0,.39,0,5.67,5.67,0,0,0,1.19-.12,14.84,14.84,0,0,0,3.07-1.12,45.27,45.27,0,0,0,6.47-4c2.14-1.51,4.23-3.16,6.28-4.88s4.09-3.51,6.05-5.29l3,2.75A92.72,92.72,0,0,1,244.17,196a46.54,46.54,0,0,1-7.09,5.22,21.9,21.9,0,0,1-4.5,2,11.69,11.69,0,0,1-2.85.48,8.58,8.58,0,0,1-1.66-.07,7.1,7.1,0,0,1-.88-.16c-.26-.07-.67-.18-.78-.23a81.59,81.59,0,0,1-15.64-7.06c-2.44-1.42-4.85-2.89-7.19-4.47s-4.58-3.19-6.87-5.06Z" style="fill: rgb(229, 138, 123); transform-origin: 226.16px 191.966px;" id="elasredb9rtq" class="animable"></path><path d="M252,181.62l2.38-6.13,5,5s-2.37,4.56-5.77,4.57Z" style="fill: rgb(229, 138, 123); transform-origin: 255.69px 180.275px;" id="elv9zwok2dhhn" class="animable"></path><polygon points="259.31 173.72 264.06 175.21 259.42 180.48 254.4 175.49 259.31 173.72" style="fill: rgb(229, 138, 123); transform-origin: 259.23px 177.1px;" id="elvirstghdax8" class="animable"></polygon><path d="M164.41,405.42H155.3a.66.66,0,0,0-.66.56l-1.23,7.21a1.27,1.27,0,0,0,1.27,1.44c3.18-.05,4.71-.24,8.72-.24,2.46,0,7.56.26,11,.26s3.67-3.37,2.26-3.68c-6.32-1.36-8.77-3.25-10.87-5.05A2.06,2.06,0,0,0,164.41,405.42Z" style="fill: rgb(38, 50, 56); transform-origin: 165.435px 410.035px;" id="elo7my7may9ad" class="animable"></path><path d="M176.12,142.7c-.81,8-1.33,11.33,2,16.16,5,7.25,15,6.8,18.23-.71,2.87-6.75,3.73-18.67-3.52-23.31A10.73,10.73,0,0,0,176.12,142.7Z" style="fill: rgb(229, 138, 123); transform-origin: 186.984px 148.518px;" id="elf5uai3yungp" class="animable"></path><path d="M177,160.1c-3.8-1.55-7.35-7.67-7.21-17.24s7.27-15.12,20-11.09S189.42,165.18,177,160.1Z" style="fill: rgb(38, 50, 56); transform-origin: 182.39px 145.565px;" id="elwbi7ctcfxyp" class="animable"></path><path d="M187.78,132.65c3.75-1.47,12.05.35,12.05,8.16l-8.07,6.55Z" style="fill: rgb(38, 50, 56); transform-origin: 193.805px 139.772px;" id="el70eqaxf8xan" class="animable"></path><path d="M186.73,132.58c5-.29,6.94-.27,11.47,1C195.22,130,189.64,131.18,186.73,132.58Z" style="fill: rgb(38, 50, 56); transform-origin: 192.465px 132.396px;" id="eltamlkz9bcn" class="animable"></path><path d="M191.06,146.86a7.31,7.31,0,0,0,.87,4.29c1,1.84,2.51,1.59,3.07.1.51-1.34.6-3.91-.8-5.29S191.3,145.21,191.06,146.86Z" style="fill: rgb(229, 138, 123); transform-origin: 193.181px 148.826px;" id="elebnhg3e2a2n" class="animable"></path><path d="M170.58,135.79c2.9,1.78,12.76.31,14.89-3.48s-5.23-10.13-11.9-9.9S164.12,131.81,170.58,135.79Z" style="fill: rgb(58, 86, 231); transform-origin: 176.382px 129.473px;" id="elf0pp5fzodyp" class="animable"></path><polygon points="169.33 396.42 152.66 394.27 152.87 390.31 171 391.1 169.33 396.42" style="fill: rgb(245, 245, 245); transform-origin: 161.83px 393.365px;" id="el3nlssf5hff5" class="animable"></polygon><path d="M167.43,406.84a13.47,13.47,0,0,1-2.55-.29.18.18,0,0,1-.15-.16.2.2,0,0,1,.1-.2c.37-.19,3.65-1.85,4.63-1.29a.59.59,0,0,1,.31.51,1.06,1.06,0,0,1-.37.93A3,3,0,0,1,167.43,406.84Zm-1.91-.56c1.79.3,3.12.22,3.63-.22a.73.73,0,0,0,.24-.62.24.24,0,0,0-.12-.21C168.74,404.93,166.87,405.64,165.52,406.28Z" style="fill: rgb(58, 86, 231); transform-origin: 167.253px 405.82px;" id="el7wphf9tahga" class="animable"></path><path d="M164.92,406.55a.27.27,0,0,1-.12,0,.2.2,0,0,1-.07-.18c0-.14.39-3.46,2.2-3.46h.16c.52.05.67.32.71.53.15.92-1.82,2.68-2.8,3.12Zm2-3.28c-1.17,0-1.63,1.92-1.78,2.75,1-.61,2.35-2,2.26-2.54,0,0,0-.17-.37-.21Z" style="fill: rgb(58, 86, 231); transform-origin: 166.268px 404.735px;" id="el2m1sprcvzdq" class="animable"></path><path d="M158.69,169.34c-5.63.26-11,9.59-11,9.59l7.43,15.18s10.07-8.39,10.2-16.64C165.43,172.11,164.22,169.09,158.69,169.34Z" style="fill: rgb(58, 86, 231); transform-origin: 156.508px 181.718px;" id="el9osk4kwyuhu" class="animable"></path><g id="eltp73s37uza"><path d="M158.69,169.34c-5.63.26-11,9.59-11,9.59l7.43,15.18s10.07-8.39,10.2-16.64C165.43,172.11,164.22,169.09,158.69,169.34Z" style="fill: rgb(255, 255, 255); opacity: 0.8; transform-origin: 156.508px 181.718px;" class="animable"></path></g><path d="M156.41,218.73l32.52,6.3c15.36-45.24,11.69-46.7,11.69-46.7a67.8,67.8,0,0,0-7.38-3.43l-.45-.17c-2.07-.75-2.51-.87-5.3-1.68-4.79-1.13-9.25-2.05-14.77-2.85l-1.05-.15c-1-.12-2-.23-2.95-.32-.64-.07-1.29-.11-1.9-.16l-2.1-.11c-3.56-.18-6.1-.12-6.1-.12C160.48,197.57,159.12,205.68,156.41,218.73Z" style="fill: rgb(58, 86, 231); transform-origin: 178.707px 197.18px;" id="el9r4kezwzs5" class="animable"></path><g id="elft1p4u7zj7"><path d="M156.41,218.73l32.52,6.3c15.36-45.24,11.69-46.7,11.69-46.7a67.8,67.8,0,0,0-7.38-3.43l-.45-.17c-2.07-.75-2.51-.87-5.3-1.68-4.79-1.13-9.25-2.05-14.77-2.85l-1.05-.15c-1-.12-2-.23-2.95-.32-.64-.07-1.29-.11-1.9-.16l-2.1-.11c-3.56-.18-6.1-.12-6.1-.12C160.48,197.57,159.12,205.68,156.41,218.73Z" style="fill: rgb(255, 255, 255); opacity: 0.6; transform-origin: 178.707px 197.18px;" class="animable"></path></g><g id="elm8qy3oxt43j"><path d="M192.69,189.21c1.29,2.54,2.82,5.91,4.87,8.24.59-2.14,1.08-4,1.5-5.73Z" style="fill: rgb(58, 86, 231); opacity: 0.2; transform-origin: 195.875px 193.33px;" class="animable"></path></g><path d="M166.62,196c8.11-6.41,9.82-12.37,8.69-17.58s-2.43-14.3-1.5-17.34,4.17-9.35,3.51-14.74-2.2-12.88-.72-16.12,6.18-5.16,2.37-9.76c-1.85-2.23-9.69-2.57-11.74,3.65s-10.47,8.91-13.78,9.53-9.14,4.34-10.15,10.4-5.08,8.45-10.67,11.56S119,170.9,122.2,181.72C126.52,196.53,154.54,205.58,166.62,196Z" style="fill: rgb(38, 50, 56); transform-origin: 150.949px 159.47px;" id="eltkcofvlx0v" class="animable"></path><path d="M191,175.59c2.52-2,13.37,4.58,16.69,7.33l-1.94,14.26s-15.5-6.42-16.56-10.81C188.05,181.8,189,177.12,191,175.59Z" style="fill: rgb(58, 86, 231); transform-origin: 198.195px 186.199px;" id="elfg4bq11k7f8" class="animable"></path><g id="eldmf58i72pi"><path d="M191,175.59c2.52-2,13.37,4.58,16.69,7.33l-1.94,14.26s-15.5-6.42-16.56-10.81C188.05,181.8,189,177.12,191,175.59Z" style="fill: rgb(255, 255, 255); opacity: 0.6; transform-origin: 198.195px 186.199px;" class="animable"></path></g><path d="M156.23,216.74l-1.94,2.61c-.15.2.08.48.45.56l34.11,6.6c.29.06.56,0,.61-.22l.77-2.84c.05-.19-.17-.41-.49-.47L156.8,216.6A.58.58,0,0,0,156.23,216.74Z" style="fill: rgb(58, 86, 231); transform-origin: 172.24px 221.554px;" id="elt57z88jzjs" class="animable"></path><path d="M160.05,221.26l-.88-.17c-.17,0-.29-.15-.26-.26l1-3.68c0-.11.2-.17.38-.14l.88.17c.17,0,.29.15.26.26l-1,3.68C160.4,221.23,160.23,221.29,160.05,221.26Z" style="fill: rgb(58, 86, 231); transform-origin: 160.17px 219.135px;" id="el5careadw5tf" class="animable"></path><path d="M182.33,225.62l-.89-.17c-.17,0-.29-.15-.26-.26l1-3.68c0-.1.2-.16.38-.13l.88.17c.18,0,.3.15.27.26l-1,3.68C182.67,225.6,182.5,225.66,182.33,225.62Z" style="fill: rgb(58, 86, 231); transform-origin: 182.445px 223.502px;" id="elju6075sp4r8" class="animable"></path><g id="elxab5nnin85"><path d="M160.05,221.26l-.88-.17c-.17,0-.29-.15-.26-.26l1-3.68c0-.11.2-.17.38-.14l.88.17c.17,0,.29.15.26.26l-1,3.68C160.4,221.23,160.23,221.29,160.05,221.26Z" style="opacity: 0.6; transform-origin: 160.17px 219.135px;" class="animable"></path></g><g id="elqfxemsrqkd"><path d="M182.33,225.62l-.89-.17c-.17,0-.29-.15-.26-.26l1-3.68c0-.1.2-.16.38-.13l.88.17c.18,0,.3.15.27.26l-1,3.68C182.67,225.6,182.5,225.66,182.33,225.62Z" style="opacity: 0.6; transform-origin: 182.445px 223.502px;" class="animable"></path></g></g><defs>     <filter id="active" height="200%">         <feMorphology in="SourceAlpha" result="DILATED" operator="dilate" radius="2"></feMorphology>                <feFlood flood-color="#32DFEC" flood-opacity="1" result="PINK"></feFlood>        <feComposite in="PINK" in2="DILATED" operator="in" result="OUTLINE"></feComposite>        <feMerge>            <feMergeNode in="OUTLINE"></feMergeNode>            <feMergeNode in="SourceGraphic"></feMergeNode>        </feMerge>    </filter>    <filter id="hover" height="200%">        <feMorphology in="SourceAlpha" result="DILATED" operator="dilate" radius="2"></feMorphology>                <feFlood flood-color="#ff0000" flood-opacity="0.5" result="PINK"></feFlood>        <feComposite in="PINK" in2="DILATED" operator="in" result="OUTLINE"></feComposite>        <feMerge>            <feMergeNode in="OUTLINE"></feMergeNode>            <feMergeNode in="SourceGraphic"></feMergeNode>        </feMerge>            <feColorMatrix type="matrix" values="0   0   0   0   0                0   1   0   0   0                0   0   0   0   0                0   0   0   1   0 "></feColorMatrix>    </filter></defs></svg>