<?xml version="1.0" encoding="utf-8"?>
<!-- Generator: Adobe Illustrator 27.2.0, SVG Export Plug-In . SVG Version: 6.00 Build 0)  -->
<svg version="1.1" id="Layer_1" xmlns="http://www.w3.org/2000/svg" xmlns:xlink="http://www.w3.org/1999/xlink" x="0px" y="0px"
	 viewBox="0 0 841 841" style="enable-background:new 0 0 841 841;" xml:space="preserve">
<style type="text/css">
	.st0{fill:#FFFFFF;stroke:#231F20;stroke-width:20;stroke-miterlimit:10;}
	.st1{fill:#3A56E7;stroke:#231F20;stroke-width:20;stroke-miterlimit:10;}
	.st2{fill:#F6A237;stroke:#231F20;stroke-width:20;stroke-miterlimit:10;}
	.st3{fill:#D22D2C;stroke:#231F20;stroke-width:20;stroke-miterlimit:10;}
	.st4{fill:none;stroke:#231F20;stroke-width:20;stroke-miterlimit:10;}
	.st5{fill:none;stroke:#231F20;stroke-width:20;stroke-linecap:round;stroke-miterlimit:10;}
</style>
<path class="st0" d="M227.1,222.5l-0.5,161.4l157.8,95c0,0,38.2,17.7,65.4,1.5s89-55.7,89-55.7l0.4-200.7c0,0,2-20.8-16.3-20.9
	c-18.4-0.1-273.7,0-273.7,0S230.2,203.6,227.1,222.5z"/>
<path class="st1" d="M226.6,383.9L208.8,366L208.2,608c0,0-7.1,27.7,22,27.7s377.7,0,377.7,0s27.4-2.4,27.3-26.7
	s-0.1-236.8-0.1-236.8l-16.7,8.3l-168.6,99.9c0,0-28.5,18.2-65.4-1.5S226.6,383.9,226.6,383.9z"/>
<polygon class="st2" points="538.7,205.2 538.7,424.7 618.3,380.5 614.6,205.2 614.6,200.1 538.7,200.1 "/>
<path class="st3" d="M538.7,205.2h75.9v-29.1c0,0-3.1-17.3-17.3-17.3c-14.3,0-45.9,0-45.9,0s-12.8,1-12.8,12.8
	C538.6,183.2,538.7,205.2,538.7,205.2z"/>
<path class="st4" d="M227.6,304.7l-1,79.1c0,0,121.5,79.1,157.8,95c36.3,15.8,65.4,1.5,65.4,1.5l88.3-55.7c0,0,0.5-178.2,1-200.7
	c0.5-22.5-16.3-20.9-16.3-20.9s-248.2-1.5-273.7,0c-25.5,1.5-22,19.4-22,19.4L227.6,304.7c-5.3,1.8-9.6,5.5-12.8,9.2
	c-4.3,4.9-6.6,11.3-6.6,17.8V608c0,1.2-0.1,2.4-0.2,3.6c-0.4,3.4-0.8,11.9,4.6,17.8c3.3,3.6,8.7,6.3,17.6,6.3h377.7
	c14.8,0,27.2-11.9,27.3-26.7c0-0.4,0-0.9,0-1.4c-0.4-19.3-0.2-162.2-0.1-235.4c0-15.4,0-27.7,0.1-35.1c0-5.4-1.6-10.6-4.5-15.1
	c-3.8-5.7-9.3-13.4-14.4-17.2l-2-128.7c0,0-2.6-16.9-16.9-17.4c-14.3-0.5-46,0-46,0s-12.3-0.5-12.8,12.8
	c-0.5,13.3,0.5,52.6,0.5,52.6l-1,200.7l80.2-44.3l-2.1-75.7"/>
<polygon class="st0" points="538.7,200.1 614.6,200.1 614.6,229.2 538.6,229.2 "/>
<line class="st5" x1="489.1" y1="375.7" x2="276.7" y2="375.7"/>
<line class="st5" x1="491.1" y1="322.6" x2="276.7" y2="322.6"/>
<line class="st5" x1="494.2" y1="271" x2="421.5" y2="271"/>
</svg>
