<svg height="1em" viewBox="0 0 43 43" fill="none" xmlns="http://www.w3.org/2000/svg">
<path d="M41.6563 10.7542C41.6578 9.7187 41.3601 8.70479 40.7991 7.83441C40.2381 6.96403 39.4376 6.27424 38.4938 5.84797C37.5501 5.42171 36.5034 5.27713 35.4794 5.43161C34.4555 5.58609 33.498 6.03306 32.722 6.71878C32.3019 7.08935 31.9418 7.52282 31.6546 8.00374V8.00878C31.6092 8.08436 31.5664 8.16163 31.5244 8.23889L31.5042 8.28004C31.469 8.34639 31.4362 8.41358 31.4043 8.48161C31.3942 8.5026 31.385 8.5236 31.3757 8.5446C31.348 8.6059 31.3212 8.66805 31.296 8.73104C31.285 8.75708 31.275 8.78311 31.2649 8.80915C31.2422 8.86794 31.2204 8.92672 31.1994 8.98635L31.1691 9.07538C31.1507 9.13249 31.133 9.19044 31.1162 9.24838C31.1062 9.28114 31.0969 9.31305 31.0885 9.34581C31.0726 9.40208 31.0591 9.45919 31.0457 9.51378C31.0373 9.54821 31.0289 9.58264 31.0213 9.61708C31.0096 9.67419 30.9987 9.73213 30.9886 9.78505C30.9819 9.82032 30.9751 9.85559 30.9693 9.89086C30.96 9.94965 30.9525 10.0093 30.9449 10.0689C30.9407 10.1033 30.9357 10.1378 30.9315 10.1731C30.9247 10.2377 30.9205 10.3024 30.9155 10.3679C30.9155 10.3981 30.9105 10.4284 30.9088 10.4586C30.9038 10.5543 30.9004 10.6501 30.9004 10.7475C30.9004 10.8315 30.9004 10.9155 30.9071 10.9944V11.0482C30.9116 11.1271 30.9175 11.2061 30.9247 11.285L30.9298 11.3253C30.9373 11.3967 30.9457 11.4673 30.9567 11.537C30.9567 11.5512 30.9567 11.5664 30.9625 11.5806C30.9743 11.6571 30.9886 11.7326 31.0037 11.8082C31.0037 11.8267 31.0113 11.8443 31.0146 11.8628C31.0297 11.935 31.0465 12.0073 31.065 12.0787V12.0946C31.0843 12.1694 31.1053 12.2424 31.128 12.3155L31.1456 12.3726C31.1683 12.444 31.1918 12.5137 31.217 12.5834C31.2221 12.5985 31.2279 12.6136 31.2338 12.6288C31.2565 12.6884 31.28 12.748 31.3044 12.8068C31.3111 12.8244 31.3178 12.8412 31.3254 12.858C31.3539 12.9244 31.3833 12.9907 31.4144 13.0562L31.4421 13.1125C31.4715 13.1713 31.5009 13.2301 31.532 13.288C31.9703 14.1028 32.6106 14.7913 33.3914 15.2877C33.5963 15.4186 33.8102 15.5351 34.0313 15.6362L34.0641 15.6514C34.213 15.7185 34.365 15.779 34.5201 15.8328L34.5999 15.8596L34.7259 15.8991C34.7637 15.9109 34.8015 15.9209 34.8401 15.9319L35.0013 15.9739L35.1466 16.0074L35.2432 16.0268L35.3969 16.0545L35.4759 16.0671C35.5514 16.078 35.6279 16.0881 35.7043 16.0965L35.769 16.1023C35.8303 16.1074 35.8924 16.1124 35.9546 16.1158L36.0268 16.12C36.1108 16.12 36.1897 16.1267 36.272 16.1267C36.3695 16.1267 36.4652 16.1267 36.5609 16.1183L36.6516 16.1116C36.7171 16.1065 36.7818 16.1023 36.8465 16.0956L36.9515 16.0822C37.0103 16.0746 37.0699 16.0671 37.1287 16.0578L37.2345 16.0385C37.2916 16.0284 37.3496 16.0175 37.4025 16.0058L37.5058 15.9814C37.5629 15.968 37.62 15.9545 37.6737 15.9386C37.7065 15.9302 37.7384 15.9209 37.7712 15.9109C37.8291 15.8941 37.8871 15.8764 37.9442 15.858L38.0332 15.8277C38.0928 15.8067 38.1516 15.7849 38.2104 15.7622L38.2885 15.7311C38.3515 15.7059 38.4136 15.6791 38.4749 15.6514L38.5379 15.6228C38.606 15.5909 38.6731 15.5581 38.7395 15.5229L38.7806 15.5027C38.8579 15.4607 38.9352 15.4187 39.0108 15.3725H39.0158C39.5006 15.0875 39.9381 14.7288 40.3125 14.3093C41.1797 13.3282 41.6577 12.0636 41.6563 10.7542Z" fill="black"/>
<path d="M31.1901 17.0094L22.3247 23.9045C22.0889 24.0878 21.7987 24.1873 21.5 24.1873C21.2013 24.1873 20.9111 24.0878 20.6753 23.9045L8.58152 14.4982C8.43943 14.3909 8.32009 14.2564 8.23041 14.1026C8.14074 13.9488 8.08254 13.7787 8.05918 13.6022C8.03583 13.4256 8.04778 13.2462 8.09436 13.0744C8.14093 12.9025 8.2212 12.7417 8.33049 12.6011C8.43979 12.4605 8.57592 12.3431 8.731 12.2556C8.88607 12.1681 9.05699 12.1123 9.23382 12.0914C9.41064 12.0705 9.58986 12.085 9.76104 12.134C9.93222 12.183 10.092 12.2655 10.231 12.3768L21.5 21.1414L29.413 14.987C28.6474 13.7484 28.232 12.3253 28.2111 10.8692C28.1903 9.41322 28.5647 7.9788 29.2946 6.71875H7.39062C6.14369 6.72008 4.9482 7.21602 4.06649 8.09774C3.18477 8.97945 2.68883 10.1749 2.6875 11.4219V31.5781C2.68883 32.8251 3.18477 34.0205 4.06649 34.9023C4.9482 35.784 6.14369 36.2799 7.39062 36.2812H35.6094C36.8563 36.2799 38.0518 35.784 38.9335 34.9023C39.8152 34.0205 40.3112 32.8251 40.3125 31.5781V17.7367C38.8979 18.556 37.2675 18.9253 35.6379 18.7954C34.0084 18.6655 32.457 18.0425 31.1901 17.0094Z" fill="black"/>
</svg>
